<svg fill="none" xmlns="http://www.w3.org/2000/svg" viewBox="0 0 33 29"><path d="M31.026.19c-.414.02-.817.208-1.099.512-4.21 4.403-10.944 11.812-15.415 16.534l-5.634-4.308c-.663-.519-1.74-.382-2.253.285-.513.667-.368 1.743.304 2.25l6.796 5.195c.619.478 1.596.404 2.136-.163 4.477-4.682 11.983-12.973 16.39-17.582a1.64 1.64 0 00.323-1.782 1.64 1.64 0 00-1.548-.94zM.708 5.01v21.58c0 .837.762 1.598 1.599 1.598h22.386c.837 0 1.599-.761 1.599-1.598V16.2c.012-.845-.754-1.621-1.6-1.621-.844 0-1.61.776-1.598 1.62v8.792H3.906V6.61h16.79c.844.012 1.621-.754 1.621-1.598 0-.845-.777-1.61-1.622-1.599H2.307c-.882 0-1.581.925-1.599 1.599z" fill="#1650FE"/></svg>