<svg width="40" height="41" fill="none" xmlns="http://www.w3.org/2000/svg"><path d="M20 .966c-11.045 0-20 8.958-20 20 0 11.048 8.955 20 20 20s20-8.952 20-20c0-11.042-8.955-20-20-20zm0 8.871a3.387 3.387 0 110 6.774 3.387 3.387 0 010-6.774zm4.516 20.484a.968.968 0 01-.968.968h-7.096a.968.968 0 01-.968-.968v-1.936c0-.534.433-.967.968-.967h.967v-5.162h-.967a.968.968 0 01-.968-.967v-1.936c0-.534.433-.968.968-.968h5.16c.535 0 .969.434.969.968v8.065h.967c.535 0 .968.433.968.967v1.936z" fill="#fff"/></svg>