<svg fill="none" xmlns="http://www.w3.org/2000/svg" viewBox="0 0 16 16"><path d="M13.947.39H2.16A1.608 1.608 0 00.554 1.997v11.77a1.604 1.604 0 001.607 1.605h11.786a1.608 1.608 0 001.607-1.605V1.996A1.604 1.604 0 0013.947.39zm-.549 10.279l-.502 2.173a.502.502 0 01-.49.389c-5.357 0-9.71-4.337-9.71-9.697a.525.525 0 01.39-.489l2.177-.501a.612.612 0 01.112-.013.545.545 0 01.462.304l1.005 2.34c.024.063.038.13.04.198a.568.568 0 01-.184.388L5.429 6.798a7.76 7.76 0 003.71 3.704l1.037-1.267a.57.57 0 01.39-.184.599.599 0 01.197.04l2.344 1.004a.544.544 0 01.304.46.585.585 0 01-.013.114z" fill="#1650FE"/></svg>