<svg fill="none" xmlns="http://www.w3.org/2000/svg" viewBox="0 0 32 70"><path d="M2 .978h24v68.837l-12-5.603-12 5.603V.978z" fill="#FE164E"/><path d="M26 .978l3 2.494 3 2.494h-6V.978z" fill="#E31446"/><path d="M11.457 16.958c.325 0 .58-.116.761-.35.182-.228.37-.632.565-1.212.195-.58.383-1.053.565-1.421.588-1.198 1.397-1.797 2.425-1.797.512 0 .963.148 1.352.444.394.301.698.724.914 1.27.22.546.33 1.16.33 1.84 0 .665-.118 1.26-.355 1.785-.237.529-.576.939-1.016 1.231a2.629 2.629 0 01-1.498.438v-2.222c.377 0 .669-.116.876-.349.207-.228.311-.54.311-.933 0-.398-.089-.713-.267-.946a.802.802 0 00-.666-.343c-.237 0-.453.127-.648.381-.19.254-.389.7-.596 1.34-.203.639-.423 1.163-.66 1.574-.576.999-1.37 1.498-2.38 1.498-.809 0-1.444-.305-1.905-.914-.461-.61-.692-1.445-.692-2.507 0-.75.133-1.429.4-2.038.27-.605.639-1.062 1.104-1.371.47-.305 1.01-.457 1.62-.457v2.234c-.496 0-.862.127-1.1.381-.232.258-.348.675-.348 1.25 0 .369.078.659.235.87.16.216.385.324.672.324zm-.73 12v-3.053L9 25.372v-2.38l9.242 3.389v2.095L9 31.89v-2.393l1.727-.54zm1.72-2.52v1.987l3.205-.997-3.205-.99zm-1.733 11.74v3.878H9V35.95h9.242v2.228h-7.528zm2.202 13.93v-3.504h-2.202v4.139H9v-6.367h9.242v6.38h-1.72v-4.152h-1.949v3.504h-1.657z" fill="#fff"/></svg>